:SAMPLES-PER-SECOND 30
:FULLY-SPECIFIED
:DEGREES
65
root  5.31183 39.4814 -1.03219 39.2828 -81.0984 -43.7159
RightUpLeg  -1.07223 -5.37315 0.33797
RightLeg  12.3077 -8.47283 -2.21258
RightFoot  -4.79356 -0.639525 10.5867
RightToes  -1.28057e-009 0 -3.6325e-017
Spine  10.0099 -0.765571 3.80589
Spine1  5.88607 -0.44064 1.33796
HEad  -17.3651 -8.50753 6.46497
LeftShoulder1  1.05918 -3.12427 -8.51069
LeftArm  37.9371 18.284 -37.9093
LeftForeArm  84.7008 -75.2302 -31.6209
LeftHand  -1.55098 0.325241 34.8316
RightShoulder  1.07546 1.55117 14.4722
RightArm  41.9983 -24.4157 25.7401
RightForeArm  74.1093 75.4972 34.9019
RightHand  -3.4123 4.40554 -39.1858
LeftUpLeg  -9.11191 -3.58878 18.8506
LeftLeg  25.0129 20.9879 10.6092
LeftFoot  -2.11013 1.02211 -12.4035
LeftToes  -7.27922e-012 9.28972e-011 -9.04533e-012
66
root  5.34083 39.5756 -1.15333 35.0394 -81.3101 -40.2313
RightUpLeg  0.294665 -5.76681 -0.205072
RightLeg  11.1372 -8.50245 -2.00459
RightFoot  -4.00507 -0.683454 10.204
RightToes  -1.28057e-009 0 -3.6325e-017
Spine  10.9883 -0.24014 3.31907
Spine1  6.40281 0.231941 0.791164
HEad  -18.1516 -8.37449 6.40781
LeftShoulder1  1.09296 -3.07296 -9.22467
LeftArm  30.6544 16.4484 -39.0367
LeftForeArm  71.3972 -70.1383 -22.8201
LeftHand  -1.37558 0.913007 34.9777
RightShoulder  1.09153 1.57817 14.6948
RightArm  36.536 -22.7081 26.3882
RightForeArm  56.7125 66.7824 20.1325
RightHand  -3.33009 3.98496 -39.8883
LeftUpLeg  -10.0621 -0.703071 16.1617
LeftLeg  28.7932 19.6468 11.5971
LeftFoot  -5.13052 0.626354 -11.1526
LeftToes  -7.27922e-012 9.28972e-011 -9.04533e-012
67
root  5.32623 39.6528 -1.16817 30.3538 -81.5897 -35.8957
RightUpLeg  1.14087 -6.30056 -1.15944
RightLeg  10.3473 -8.10757 -1.67637
RightFoot  -3.46398 -0.744231 10.4375
RightToes  -1.28057e-009 0 -3.6325e-017
Spine  11.746 0.32417 2.64377
Spine1  6.14914 0.857525 0.370275
HEad  -18.102 -8.35513 6.26179
LeftShoulder1  1.12647 -2.92278 -10.239
LeftArm  22.8907 14.6342 -40.5523
LeftForeArm  61.1538 -64.1835 -17.0107
LeftHand  -1.05556 2.07395 36.2369
RightShoulder  1.15004 1.72911 15.2411
RightArm  29.6798 -21.6238 26.61
RightForeArm  52.099 58.1337 13.3202
RightHand  -3.10876 3.40927 -39.6901
LeftUpLeg  -10.5623 2.61483 12.9439
LeftLeg  29.71 13.1064 8.30325
LeftFoot  -8.03855 0.425304 -12.9379
LeftToes  -7.27922e-012 9.28972e-011 -9.04533e-012
68
root  5.27489 39.6553 -1.08123 27.5858 -81.3438 -33.0391
RightUpLeg  1.1508 -6.56577 -1.62932
RightLeg  10.4963 -8.08974 -1.63496
RightFoot  -3.40008 -0.780687 10.8819
RightToes  -1.28057e-009 0 -3.6325e-017
Spine  12.0579 0.729889 2.55075
Spine1  5.418 1.31424 0.106933
HEad  -17.3461 -8.50435 6.06945
LeftShoulder1  1.16017 -2.79289 -11.2292
LeftArm  14.5962 13.0668 -42.5059
LeftForeArm  54.1544 -59.1001 -13.7969
LeftHand  -0.638303 3.44257 37.436
RightShoulder  1.19963 1.80603 15.9215
RightArm  21.2314 -21.8466 26.3599
RightForeArm  52.5515 52.4526 10.3941
RightHand  -2.87281 2.7754 -39.5394
LeftUpLeg  -11.118 4.95688 9.92211
LeftLeg  29.2473 6.60507 4.34098
LeftFoot  -8.44794 0.373926 -12.8835
LeftToes  -7.27922e-012 9.28972e-011 -9.04533e-012
69
root  5.17812 39.6261 -0.926596 25.735 -80.1404 -31.0545
RightUpLeg  1.22169 -6.31861 -1.32729
RightLeg  10.7773 -9.55307 -2.14402
RightFoot  -3.52419 -0.766167 10.8278
RightToes  -1.28057e-009 0 -3.6325e-017
Spine  11.8431 0.799045 2.57659
Spine1  5.16301 1.27333 0.377611
HEad  -16.5346 -8.62139 5.84057
LeftShoulder1  1.24201 -2.93265 -12.1939
LeftArm  5.51889 12.2015 -44.7452
LeftForeArm  51.0179 -57.1067 -12.8775
LeftHand  -0.249405 4.61911 38.0018
RightShoulder  1.16605 1.56817 16.3583
RightArm  11.815 -23.268 25.9734
RightForeArm  51.5177 51.2566 10.0088
RightHand  -2.67398 2.15373 -39.8135
LeftUpLeg  -11.1404 4.57681 7.53924
LeftLeg  27.8803 5.61858 3.53346
LeftFoot  -7.32976 0.352232 -8.82593
LeftToes  -7.27922e-012 9.28972e-011 -9.04533e-012
